<svg width="61" height="47" viewBox="0 0 61 47" fill="none" xmlns="http://www.w3.org/2000/svg">
<path d="M56.0065 0C56.1218 0.031011 56.2405 0.0249436 56.3571 0.0391008C56.3915 0.0438198 56.4272 0.0478647 56.4623 0.0525838C57.8611 0.231234 58.9728 0.910779 59.8492 1.99886C60.3447 2.61436 60.7202 3.29188 60.9002 4.0685C60.9804 4.41569 60.9993 4.7676 61 5.1222C61.0013 5.7195 60.8813 6.2932 60.6744 6.85207C60.4074 7.57274 60.1492 8.29745 59.8849 9.01947C59.7791 9.30936 59.6658 9.59655 59.5586 9.88576C59.4953 10.0583 59.4373 10.2329 59.3773 10.4075C59.3348 10.5316 59.322 10.5417 59.196 10.5444C59.1636 10.5444 59.1312 10.5444 59.0989 10.5444C50.0551 10.5444 41.0114 10.5444 31.967 10.5444C31.8982 10.5444 31.8288 10.5552 31.76 10.5356C31.8423 10.3219 31.9076 10.1022 31.9919 9.89385C32.2798 9.18531 32.5346 8.46465 32.8016 7.7487C33.7447 5.21861 34.6831 2.68582 35.6216 0.153707C35.6398 0.104493 35.6735 0.057977 35.6633 0.000674151H56.0065V0Z" fill="white"/>
<path d="M30.4886 0C30.4825 0.0869655 30.4454 0.164493 30.4158 0.243369C29.2205 3.42064 28.0252 6.59792 26.8286 9.77519C26.7437 10.001 26.6567 10.2262 26.5704 10.4514C26.5461 10.5154 26.5104 10.5599 26.4309 10.5451C26.3998 10.539 26.3661 10.5444 26.3338 10.5444C21.9626 10.5444 17.5907 10.5444 13.2195 10.5444C13.1561 10.5444 13.0914 10.5565 13.0287 10.5336C13.0179 10.4743 13.0523 10.4278 13.0698 10.3792C13.171 10.1015 13.2755 9.82441 13.3786 9.54666C13.5471 9.09363 13.7157 8.63992 13.8842 8.18689C13.9955 7.8869 14.1067 7.5869 14.2179 7.2869C14.3575 6.9114 14.497 6.5359 14.6359 6.16039C14.7755 5.78489 14.915 5.40939 15.0539 5.03389C15.6572 3.40716 16.2613 1.78111 16.864 0.153707C16.8822 0.105168 16.9179 0.0586512 16.9037 0.000674151H30.4872L30.4886 0Z" fill="white"/>
<path d="M21.1597 25.5236C19.7581 29.0211 18.3579 32.5159 16.9503 36.0289H49.8792C49.9021 36.1031 49.8617 36.153 49.8408 36.2056C48.8842 38.6568 47.9262 41.1087 46.9689 43.5599C46.6655 44.3372 46.3615 45.1138 46.0568 45.8904C45.9826 46.0792 46.0251 46.0522 45.8175 46.0522C36.7676 46.0522 27.7172 46.0522 18.6674 46.0522H0.216508C0.14707 46.0522 0.0776327 46.0522 0.0041502 46.0522C-0.0120294 45.9808 0.0230264 45.9302 0.0419027 45.8776C0.750436 43.9077 1.45964 41.9379 2.16952 39.968C3.6621 35.8267 5.15601 31.6854 6.64319 27.542C6.72005 27.3283 6.7969 27.1126 6.86836 26.8969C6.93577 26.6946 7.01263 26.4897 7.09555 26.2895C7.20476 26.0266 7.29173 25.7542 7.3888 25.4866C7.48723 25.2135 7.58498 24.9398 7.68341 24.6668C7.77981 24.3985 7.88835 24.1342 7.96925 23.8612C8.0252 23.6738 8.09329 23.4884 8.16138 23.3077C8.24632 23.0825 8.32318 22.8527 8.41014 22.6275C8.50452 22.3834 8.58542 22.1313 8.67711 21.8866C8.74722 21.6992 8.81935 21.5057 8.92317 21.3297C8.96834 21.2529 9.00811 21.1706 9.02429 21.0776C9.0398 20.9893 9.1207 20.9286 9.16115 20.8491C9.46317 20.2511 9.84204 19.7023 10.2539 19.1772C10.347 19.0585 10.4353 18.9304 10.5573 18.832C10.6894 18.7248 10.7744 18.5745 10.9032 18.4579C11.276 18.1208 11.6528 17.7911 12.062 17.4999C12.3735 17.2781 12.7045 17.0866 13.0308 16.8864C13.5249 16.583 14.0636 16.3821 14.6002 16.1786C15.2622 15.9271 15.9492 15.766 16.6489 15.6601C17.2449 15.5698 17.8449 15.5145 18.4489 15.5186C18.5514 15.5192 18.6539 15.5186 18.7563 15.5186C31.5956 15.5186 44.4354 15.5186 57.2747 15.5186C57.3441 15.5186 57.4142 15.5091 57.4823 15.5273C57.5045 15.5671 57.4843 15.6008 57.4722 15.6352C57.0387 16.8176 56.6187 18.0048 56.169 19.1812C55.77 20.2255 55.2023 21.176 54.4736 22.0268C53.5844 23.065 52.5064 23.8544 51.2774 24.445C50.4698 24.8326 49.6257 25.1077 48.7487 25.289C47.9201 25.4603 47.0835 25.5236 46.2395 25.5236C42.9894 25.5236 39.7386 25.5236 36.4885 25.5236C31.3947 25.5236 26.3008 25.5236 21.2076 25.5236C21.1914 25.5236 21.1752 25.5236 21.161 25.5236H21.1597Z" fill="white"/>
<path d="M56.4619 0.051569C56.4269 0.0468499 56.3911 0.042805 56.3568 0.0380859C56.3925 0.042805 56.4269 0.0468499 56.4619 0.051569Z" fill="white"/>
</svg>
